<?xml version="1.0" encoding="utf-8"?>
<!-- Generator: Adobe Illustrator 24.1.2, SVG Export Plug-In . SVG Version: 6.00 Build 0)  -->
<svg version="1.1" id="Layer_1" xmlns="http://www.w3.org/2000/svg" xmlns:xlink="http://www.w3.org/1999/xlink" x="0px" y="0px"
	 viewBox="187 110 182 142">
<style type="text/css">
	.st0{fill:#69686A;}
	.st1{fill:#E41F29;}
	.st2{fill:#FFFFFF;}
	.st3{fill:#D8D6D6;}
	.st4{fill:none;}
</style>
<g>
	<path class="st0" d="M206.84,228.68c0.06-0.03,0.07-0.08,0.04-0.13l-0.57-0.97c-0.17-0.29-0.27-0.56-0.32-0.84
		c-0.04-0.28-0.03-0.54,0.03-0.78c0.06-0.25,0.18-0.47,0.34-0.68c0.16-0.21,0.37-0.38,0.62-0.53c0.25-0.15,0.5-0.24,0.76-0.27
		c0.26-0.04,0.51-0.02,0.76,0.04c0.25,0.07,0.48,0.19,0.7,0.36c0.22,0.17,0.41,0.4,0.57,0.68l1.01,1.72
		c0.04,0.08,0.03,0.14-0.05,0.18l-5.64,3.32c-0.06,0.04-0.12,0.02-0.16-0.06l-1.74-2.96c-0.04-0.08-0.04-0.13,0.03-0.17l0.48-0.28
		c0.07-0.04,0.13-0.02,0.17,0.05l1.29,2.2c0.03,0.05,0.07,0.06,0.12,0.03L206.84,228.68z M209.08,225.97
		c-0.09-0.15-0.2-0.28-0.33-0.37c-0.13-0.1-0.27-0.16-0.42-0.2c-0.15-0.03-0.3-0.04-0.45-0.02c-0.15,0.02-0.3,0.07-0.43,0.15
		c-0.35,0.21-0.56,0.46-0.62,0.76c-0.06,0.3-0.01,0.6,0.17,0.9l0.57,0.97c0.03,0.05,0.07,0.06,0.13,0.03l1.92-1.13
		c0.05-0.03,0.06-0.07,0.03-0.13L209.08,225.97z"/>
	<path class="st0" d="M201.57,222.97c0.03,0.05,0.07,0.06,0.13,0.04l1.28-0.61c0.75-0.36,1.37-0.63,1.88-0.82
		c0.5-0.19,0.94-0.29,1.3-0.32c0.36-0.03,0.67,0.01,0.94,0.13c0.27,0.12,0.54,0.3,0.81,0.55c0.01,0.01,0.03,0.03,0.04,0.06
		c0.03,0.06,0.01,0.12-0.04,0.17l-0.32,0.33c-0.01,0-0.01,0.01-0.02,0.01c0,0.01-0.01,0.01-0.02,0.01c-0.03,0.02-0.07,0.02-0.1,0
		c-0.04-0.02-0.07-0.04-0.1-0.06c-0.13-0.09-0.25-0.17-0.36-0.24c-0.11-0.07-0.24-0.11-0.38-0.14c-0.14-0.02-0.31-0.03-0.49-0.01
		c-0.19,0.02-0.41,0.07-0.67,0.16c-0.26,0.08-0.57,0.2-0.93,0.35c-0.36,0.15-0.78,0.35-1.27,0.58l-1.88,0.9
		c-0.07,0.04-0.13,0.01-0.17-0.07l-1.46-3.04c-0.04-0.08-0.02-0.13,0.04-0.17l5.9-2.83c0.08-0.04,0.14-0.02,0.18,0.06l0.29,0.6
		c0.03,0.07,0.02,0.13-0.06,0.16l-5.22,2.51c-0.06,0.03-0.08,0.07-0.05,0.12L201.57,222.97z"/>
	<path class="st0" d="M203.6,212.39c0.03,0.09,0.03,0.15-0.02,0.17l-1.21,0.85c-0.02,0.02-0.03,0.04-0.03,0.06l0.7,1.82
		c0.01,0.03,0.02,0.04,0.03,0.04c0.01,0,0.02,0,0.03,0.01l1.47-0.19c0.05-0.01,0.09,0.02,0.12,0.11l0.21,0.56
		c0.02,0.05,0.03,0.1,0.01,0.13c-0.01,0.03-0.05,0.05-0.12,0.06l-6.64,0.8c-0.04,0.01-0.07,0-0.1-0.01
		c-0.03-0.01-0.06-0.05-0.08-0.1l-0.33-0.87c-0.03-0.08-0.02-0.15,0.04-0.19l5.47-3.88c0.03-0.03,0.07-0.04,0.11-0.05
		c0.04-0.01,0.08,0.02,0.1,0.08L203.6,212.39z M200.13,215.71l2.07-0.26c0.04-0.01,0.06-0.01,0.07-0.02
		c0.01-0.01,0.01-0.03-0.01-0.06l-0.54-1.42c-0.01-0.03-0.03-0.05-0.04-0.06c-0.01,0-0.04,0.01-0.07,0.03l-1.68,1.16l-1.19,0.78
		c-0.02,0.01-0.02,0.03-0.02,0.04c0,0.01,0.01,0.02,0.03,0.02L200.13,215.71z"/>
	<path class="st0" d="M195.84,207.72l0.73,2.47c0.02,0.06,0.05,0.08,0.11,0.06l5.54-1.64c0.09-0.03,0.14,0,0.16,0.08l0.19,0.64
		c0.03,0.08,0,0.14-0.08,0.16l-6.28,1.86c-0.08,0.02-0.13-0.01-0.15-0.09l-0.98-3.31c-0.03-0.08,0-0.14,0.07-0.16l0.54-0.16
		C195.76,207.6,195.81,207.63,195.84,207.72z"/>
	<path class="st0" d="M198.49,200.6c0.29-0.06,0.56-0.07,0.81-0.01c0.25,0.06,0.47,0.16,0.67,0.31c0.2,0.15,0.36,0.34,0.5,0.57
		c0.14,0.23,0.24,0.49,0.3,0.78c0.06,0.29,0.08,0.57,0.06,0.84c-0.03,0.26-0.09,0.51-0.21,0.73c-0.11,0.22-0.27,0.41-0.48,0.56
		c-0.21,0.15-0.46,0.26-0.76,0.33l-3.12,0.67c-0.29,0.06-0.55,0.06-0.8,0c-0.25-0.06-0.47-0.16-0.67-0.31
		c-0.2-0.15-0.36-0.34-0.5-0.57c-0.14-0.23-0.24-0.49-0.3-0.77c-0.06-0.28-0.08-0.55-0.05-0.82c0.03-0.26,0.09-0.51,0.21-0.73
		c0.11-0.22,0.27-0.41,0.48-0.57c0.21-0.16,0.46-0.27,0.75-0.33L198.49,200.6z M195.59,202.17c-0.31,0.07-0.54,0.23-0.69,0.48
		c-0.16,0.25-0.2,0.55-0.12,0.89c0.08,0.35,0.24,0.61,0.49,0.77c0.25,0.16,0.53,0.21,0.83,0.15l3.08-0.67
		c0.32-0.07,0.56-0.22,0.71-0.46c0.15-0.24,0.19-0.54,0.11-0.91c-0.08-0.36-0.24-0.62-0.48-0.78c-0.24-0.16-0.52-0.21-0.84-0.14
		L195.59,202.17z"/>
	<path class="st0" d="M193.41,194.94l0.2,1.44c0.01,0.07,0.04,0.09,0.1,0.09l5.72-0.77c0.09-0.01,0.14,0.02,0.15,0.1l0.09,0.67
		c0.01,0.09-0.02,0.14-0.1,0.15l-5.72,0.77c-0.07,0.01-0.09,0.04-0.09,0.1l0.19,1.42c0.01,0.09-0.02,0.14-0.1,0.15l-0.54,0.07
		c-0.08,0.01-0.13-0.03-0.14-0.11l-0.54-3.96c-0.01-0.09,0.02-0.14,0.09-0.15l0.56-0.08C193.36,194.81,193.4,194.85,193.41,194.94z"
		/>
	<path class="st0" d="M196.89,187.92c0.3-0.02,0.57,0.01,0.83,0.09c0.25,0.08,0.47,0.2,0.66,0.36c0.19,0.16,0.34,0.36,0.45,0.6
		c0.11,0.24,0.18,0.5,0.2,0.8l0.12,2.12c0.01,0.09-0.03,0.13-0.11,0.14l-6.53,0.38c-0.08,0.01-0.12-0.03-0.13-0.11l-0.11-1.97
		c-0.04-0.59,0.09-1.07,0.37-1.44c0.28-0.36,0.71-0.56,1.29-0.6c0.12-0.01,0.24,0,0.36,0.03c0.13,0.03,0.25,0.07,0.37,0.13
		c0.12,0.06,0.23,0.13,0.34,0.21c0.11,0.08,0.2,0.17,0.28,0.27c0.03,0.01,0.05,0.01,0.08-0.02c0.14-0.31,0.35-0.55,0.63-0.72
		C196.26,188.03,196.57,187.94,196.89,187.92z M193.94,189.2c-0.29,0.02-0.52,0.12-0.68,0.3c-0.16,0.19-0.23,0.45-0.21,0.78
		l0.06,1.06c0,0.06,0.03,0.09,0.09,0.08l1.79-0.1c0.07,0,0.1-0.03,0.09-0.09l-0.06-1.08c-0.02-0.34-0.13-0.59-0.35-0.75
		C194.46,189.26,194.22,189.19,193.94,189.2z M196.97,188.83c-0.15,0.01-0.3,0.04-0.45,0.09c-0.15,0.05-0.28,0.12-0.38,0.23
		c-0.11,0.1-0.19,0.23-0.26,0.39c-0.06,0.16-0.09,0.35-0.08,0.57l0.06,1.1c0,0.06,0.04,0.09,0.09,0.08l2.24-0.13
		c0.07,0,0.1-0.03,0.09-0.09l-0.07-1.22c-0.02-0.34-0.14-0.59-0.38-0.77C197.62,188.89,197.32,188.81,196.97,188.83z"/>
	<path class="st0" d="M197.15,181.28c0.3,0.01,0.57,0.06,0.79,0.18c0.23,0.11,0.42,0.26,0.58,0.45c0.16,0.19,0.28,0.41,0.35,0.67
		c0.08,0.25,0.12,0.53,0.11,0.83c-0.01,0.3-0.05,0.58-0.14,0.83c-0.09,0.25-0.21,0.47-0.37,0.66c-0.16,0.19-0.36,0.33-0.6,0.43
		c-0.24,0.1-0.51,0.15-0.82,0.14l-3.19-0.06c-0.29-0.01-0.55-0.07-0.78-0.18c-0.23-0.12-0.42-0.27-0.58-0.46
		c-0.16-0.19-0.28-0.41-0.36-0.67c-0.08-0.26-0.12-0.53-0.11-0.82c0.01-0.29,0.05-0.55,0.14-0.81c0.09-0.25,0.21-0.47,0.37-0.66
		c0.16-0.19,0.36-0.34,0.6-0.44c0.24-0.11,0.5-0.16,0.81-0.15L197.15,181.28z M193.96,182.14c-0.32-0.01-0.58,0.09-0.79,0.3
		c-0.21,0.21-0.32,0.49-0.33,0.84c-0.01,0.36,0.09,0.65,0.3,0.86c0.2,0.22,0.46,0.33,0.77,0.33l3.14,0.06
		c0.33,0.01,0.6-0.09,0.8-0.29c0.21-0.2,0.31-0.48,0.32-0.86c0.01-0.37-0.09-0.66-0.29-0.87c-0.2-0.21-0.46-0.32-0.79-0.33
		L193.96,182.14z"/>
	<path class="st0" d="M194.82,174.23c0.27,0.03,0.52,0.11,0.75,0.23c0.23,0.13,0.42,0.29,0.58,0.49c0.16,0.2,0.28,0.43,0.36,0.69
		c0.08,0.26,0.1,0.53,0.07,0.83l-0.1,1.01c-0.01,0.06,0.02,0.09,0.09,0.1l2.55,0.26c0.09,0.01,0.13,0.06,0.12,0.15l-0.07,0.66
		c-0.01,0.09-0.05,0.13-0.13,0.12l-6.51-0.68c-0.08-0.01-0.12-0.06-0.11-0.14l0.19-1.87c0.03-0.32,0.11-0.6,0.24-0.84
		c0.13-0.24,0.29-0.44,0.49-0.6c0.2-0.16,0.42-0.27,0.68-0.34C194.26,174.22,194.53,174.2,194.82,174.23z M193.29,177.15
		c-0.01,0.07,0.02,0.1,0.08,0.11l2.22,0.23c0.07,0.01,0.1-0.02,0.11-0.08l0.1-1.01c0.04-0.34-0.04-0.63-0.24-0.86
		c-0.19-0.23-0.48-0.37-0.85-0.4c-0.14-0.01-0.28-0.01-0.43,0.03c-0.15,0.03-0.29,0.09-0.41,0.17c-0.12,0.08-0.23,0.19-0.32,0.33
		c-0.09,0.13-0.14,0.3-0.16,0.49L193.29,177.15z"/>
	<path class="st0" d="M193.31,171.37c-0.07-0.01-0.1-0.06-0.08-0.15l0.12-0.61c0.01-0.08,0.06-0.11,0.14-0.1l4.77,0.89
		c0.01,0,0.02,0,0.02-0.01c0-0.01-0.01-0.02-0.02-0.03l-4.23-3.39c-0.04-0.05-0.08-0.09-0.1-0.13c-0.03-0.04-0.03-0.11-0.01-0.19
		l0.09-0.5c0.01-0.08,0.06-0.11,0.14-0.1l6.43,1.21c0.08,0.01,0.11,0.07,0.09,0.15l-0.12,0.62c-0.01,0.08-0.07,0.11-0.15,0.09
		l-4.83-0.91c-0.02,0-0.02,0.01-0.01,0.03c0.69,0.54,1.41,1.11,2.16,1.7c0.75,0.6,1.47,1.17,2.17,1.7c0.07,0.05,0.11,0.09,0.12,0.13
		c0.01,0.03,0,0.09-0.01,0.19l-0.09,0.49c-0.02,0.09-0.07,0.12-0.15,0.11L193.31,171.37z"/>
	<path class="st0" d="M196.44,160.76l-0.38,1.4c-0.02,0.06,0,0.1,0.06,0.12l5.57,1.51c0.08,0.02,0.12,0.07,0.1,0.15l-0.18,0.65
		c-0.02,0.08-0.07,0.12-0.15,0.1l-5.57-1.51c-0.06-0.02-0.1,0-0.12,0.06l-0.38,1.38c-0.02,0.08-0.07,0.12-0.15,0.1l-0.53-0.14
		c-0.08-0.02-0.1-0.07-0.08-0.16l1.05-3.85c0.02-0.09,0.07-0.12,0.14-0.1l0.54,0.15C196.43,160.62,196.46,160.67,196.44,160.76z"/>
	<path class="st0" d="M204.13,156.73l-1.2,3.38c-0.03,0.08-0.08,0.11-0.16,0.08l-6.17-2.18c-0.08-0.03-0.1-0.08-0.07-0.16l1.18-3.34
		c0.03-0.09,0.09-0.12,0.16-0.09l0.51,0.18c0.08,0.03,0.11,0.09,0.08,0.17l-0.89,2.52c-0.02,0.06,0,0.09,0.05,0.11l1.77,0.63
		c0.06,0.02,0.09,0.01,0.11-0.04l0.74-2.08c0.03-0.08,0.08-0.11,0.17-0.08l0.52,0.18c0.08,0.03,0.1,0.08,0.07,0.15l-0.74,2.08
		c-0.02,0.06,0,0.09,0.06,0.12l2.01,0.71c0.06,0.02,0.1,0.01,0.12-0.04l0.91-2.56c0.03-0.08,0.08-0.11,0.16-0.08l0.52,0.18
		C204.13,156.59,204.16,156.65,204.13,156.73z"/>
	<path class="st0" d="M200.2,150.56c-0.02,0.05-0.01,0.09,0.05,0.12l1.29,0.58c0.76,0.34,1.37,0.64,1.84,0.91
		c0.47,0.27,0.83,0.53,1.08,0.78c0.25,0.26,0.43,0.52,0.51,0.8c0.08,0.28,0.12,0.6,0.1,0.98c0,0.02-0.01,0.04-0.02,0.07
		c-0.03,0.06-0.08,0.08-0.15,0.07l-0.45-0.04c-0.01,0-0.01,0-0.02,0c-0.01,0-0.02,0-0.02,0c-0.03-0.02-0.06-0.04-0.07-0.08
		c-0.01-0.04-0.02-0.08-0.01-0.12c-0.01-0.16-0.02-0.3-0.05-0.43c-0.02-0.13-0.07-0.26-0.14-0.38c-0.07-0.13-0.17-0.25-0.31-0.38
		c-0.13-0.13-0.32-0.27-0.55-0.41c-0.23-0.14-0.52-0.31-0.87-0.48c-0.35-0.18-0.77-0.38-1.26-0.6l-1.91-0.86
		c-0.07-0.03-0.09-0.09-0.06-0.17l1.38-3.08c0.04-0.08,0.09-0.11,0.15-0.08l5.97,2.68c0.08,0.04,0.1,0.09,0.07,0.17l-0.27,0.61
		c-0.03,0.07-0.09,0.09-0.16,0.06l-5.28-2.37c-0.06-0.03-0.1-0.01-0.13,0.04L200.2,150.56z"/>
	<path class="st0" d="M204.82,145.43c0.06,0.03,0.1,0.02,0.13-0.03l0.59-1.06c0.16-0.29,0.34-0.52,0.56-0.68
		c0.21-0.17,0.44-0.28,0.68-0.35c0.24-0.06,0.49-0.07,0.75-0.03c0.26,0.04,0.51,0.13,0.76,0.27c0.25,0.14,0.46,0.31,0.62,0.51
		c0.16,0.2,0.28,0.43,0.35,0.68c0.07,0.25,0.08,0.51,0.04,0.78c-0.04,0.28-0.14,0.55-0.29,0.84l-0.96,1.74
		c-0.04,0.08-0.1,0.09-0.18,0.05l-5.72-3.17c-0.06-0.04-0.07-0.09-0.03-0.17l0.31-0.57c0.04-0.08,0.1-0.1,0.16-0.06L204.82,145.43z
		 M208.3,145.97c0.08-0.15,0.14-0.31,0.16-0.47c0.02-0.16,0-0.31-0.04-0.46c-0.05-0.14-0.12-0.28-0.21-0.4
		c-0.1-0.12-0.21-0.22-0.35-0.29c-0.36-0.2-0.68-0.25-0.97-0.15c-0.29,0.1-0.52,0.3-0.69,0.6l-0.54,0.98
		c-0.03,0.05-0.01,0.09,0.04,0.13l1.94,1.08c0.05,0.03,0.09,0.01,0.13-0.04L208.3,145.97z"/>
	<path class="st0" d="M213.53,139.15l-0.38,0.55c-0.05,0.07-0.11,0.09-0.17,0.04l-2.39-1.63c-0.05-0.04-0.1-0.03-0.13,0.02
		l-1.32,1.94c-0.03,0.05-0.02,0.09,0.03,0.13l2.38,1.62c0.07,0.05,0.09,0.11,0.04,0.17l-0.38,0.56c-0.05,0.07-0.11,0.09-0.17,0.04
		l-5.41-3.68c-0.07-0.05-0.08-0.1-0.03-0.17l0.38-0.55c0.05-0.07,0.1-0.09,0.16-0.05l2.21,1.5c0.05,0.04,0.1,0.03,0.13-0.02
		l1.32-1.94c0.03-0.05,0.02-0.09-0.03-0.13l-2.2-1.5c-0.07-0.05-0.08-0.1-0.03-0.17l0.38-0.56c0.05-0.08,0.11-0.1,0.17-0.06
		l5.41,3.68C213.56,139.02,213.57,139.08,213.53,139.15z"/>
	<path class="st0" d="M212.85,133.19c0.05,0.04,0.09,0.04,0.13,0l0.81-0.97c0.19-0.23,0.4-0.41,0.64-0.53
		c0.23-0.12,0.47-0.19,0.72-0.21c0.25-0.02,0.5,0.02,0.74,0.1c0.25,0.09,0.48,0.22,0.7,0.4c0.22,0.18,0.39,0.39,0.51,0.62
		c0.12,0.23,0.2,0.47,0.22,0.73c0.02,0.26-0.01,0.52-0.1,0.78c-0.09,0.26-0.24,0.52-0.44,0.77l-1.27,1.53
		c-0.05,0.06-0.11,0.07-0.18,0.01l-5.04-4.18c-0.06-0.05-0.06-0.1-0.01-0.16l0.41-0.5c0.06-0.07,0.11-0.08,0.17-0.03L212.85,133.19z
		 M219.05,131.94c0.07,0.06,0.08,0.12,0.02,0.18l-0.44,0.52c-0.06,0.07-0.12,0.08-0.18,0.02l-5.04-4.18
		c-0.06-0.05-0.07-0.11-0.01-0.18l0.44-0.52c0.05-0.06,0.11-0.07,0.16-0.02L219.05,131.94z M216.16,134.37
		c0.11-0.14,0.19-0.28,0.24-0.44c0.05-0.16,0.06-0.31,0.05-0.46c-0.02-0.15-0.06-0.3-0.13-0.43c-0.07-0.14-0.17-0.25-0.29-0.35
		c-0.32-0.26-0.63-0.37-0.93-0.32c-0.31,0.05-0.57,0.2-0.79,0.47l-0.72,0.86c-0.04,0.04-0.03,0.09,0.02,0.13l1.71,1.42
		c0.05,0.04,0.09,0.03,0.13-0.02L216.16,134.37z"/>
	<path class="st0" d="M215.71,123.66c-0.03-0.03-0.04-0.05-0.05-0.08c0-0.03,0.01-0.06,0.05-0.1l0.16-0.16
		c0.04-0.04,0.08-0.06,0.1-0.05c0.03,0,0.06,0.02,0.11,0.05c0.2,0.1,0.38,0.16,0.53,0.15c0.16,0,0.31-0.08,0.46-0.23
		c0.28-0.28,0.31-0.61,0.08-0.99c-0.03-0.05-0.04-0.08-0.05-0.11c-0.01-0.02,0.01-0.06,0.06-0.1l0.16-0.16
		c0.04-0.04,0.08-0.06,0.1-0.05c0.03,0,0.05,0.02,0.08,0.05c0.12,0.13,0.22,0.28,0.29,0.45c0.07,0.16,0.11,0.33,0.12,0.49
		c0.01,0.16-0.02,0.32-0.08,0.48c-0.06,0.16-0.16,0.3-0.29,0.44c-0.13,0.12-0.26,0.21-0.42,0.27c-0.15,0.06-0.32,0.08-0.48,0.08
		c-0.16-0.01-0.33-0.04-0.49-0.11C215.99,123.88,215.84,123.78,215.71,123.66z M216.18,125.44c-0.05-0.05-0.05-0.11,0.02-0.17
		l0.44-0.44c0.06-0.06,0.12-0.06,0.17,0l3.42,3.44c0.01,0.01,0.02,0.01,0.02,0c0-0.01,0-0.02,0-0.04l-1.57-5.19
		c-0.01-0.06-0.01-0.12-0.01-0.17c0-0.05,0.03-0.1,0.1-0.17l0.36-0.36c0.06-0.06,0.11-0.06,0.17,0l4.62,4.64
		c0.06,0.06,0.05,0.12-0.01,0.18l-0.45,0.44c-0.06,0.06-0.12,0.05-0.18-0.01l-3.47-3.48c-0.02-0.02-0.02-0.01-0.02,0.02
		c0.26,0.83,0.54,1.71,0.82,2.63c0.28,0.92,0.56,1.8,0.82,2.63c0.03,0.08,0.04,0.14,0.03,0.17c-0.01,0.03-0.05,0.08-0.12,0.15
		l-0.35,0.35c-0.06,0.06-0.13,0.06-0.19,0L216.18,125.44z"/>
	<path class="st0" d="M231,117.98c0.15,0.19,0.24,0.41,0.29,0.65c0.05,0.24,0.05,0.48,0.01,0.72c-0.04,0.24-0.12,0.48-0.25,0.71
		c-0.13,0.23-0.29,0.43-0.49,0.61c-0.05,0.05-0.06,0.11-0.02,0.16l0.28,0.37c0.05,0.06,0.04,0.12-0.01,0.16l-0.53,0.4
		c-0.06,0.04-0.11,0.04-0.15-0.02l-0.29-0.38c-0.05-0.06-0.11-0.07-0.17-0.02c-0.22,0.15-0.46,0.26-0.7,0.32
		c-0.24,0.06-0.48,0.08-0.72,0.05c-0.24-0.03-0.46-0.1-0.68-0.22c-0.21-0.12-0.4-0.28-0.56-0.49l-1.13-1.49
		c-0.16-0.21-0.27-0.43-0.33-0.67c-0.06-0.24-0.07-0.47-0.04-0.7c0.03-0.23,0.11-0.46,0.24-0.69c0.12-0.22,0.3-0.43,0.51-0.61
		c0.05-0.04,0.06-0.08,0.03-0.12l-0.15-0.19c-0.05-0.06-0.04-0.12,0.02-0.17l0.52-0.4c0.06-0.05,0.12-0.04,0.16,0.02l0.15,0.2
		c0.03,0.04,0.07,0.05,0.11,0.01c0.25-0.17,0.5-0.29,0.75-0.35c0.25-0.07,0.5-0.09,0.74-0.07c0.24,0.02,0.47,0.1,0.68,0.22
		c0.21,0.12,0.4,0.29,0.56,0.5L231,117.98z M226.9,117.48c-0.04-0.05-0.09-0.06-0.14-0.02c-0.27,0.22-0.41,0.47-0.42,0.75
		c-0.02,0.28,0.05,0.52,0.21,0.72l1.18,1.56c0.15,0.2,0.37,0.33,0.64,0.38c0.27,0.05,0.55-0.01,0.83-0.18
		c0.05-0.04,0.06-0.08,0.03-0.13L226.9,117.48z M229.13,116.98c-0.08-0.11-0.18-0.2-0.29-0.28c-0.11-0.07-0.23-0.12-0.35-0.15
		c-0.13-0.02-0.27-0.01-0.42,0.02c-0.15,0.04-0.3,0.12-0.47,0.24c-0.04,0.03-0.05,0.07-0.02,0.11l2.34,3.08
		c0.04,0.05,0.09,0.06,0.15,0.01c0.21-0.21,0.35-0.45,0.42-0.72c0.06-0.27,0-0.53-0.18-0.77L229.13,116.98z"/>
	<path class="st0" d="M237.21,114.87c0.16,0.26,0.26,0.51,0.29,0.76c0.03,0.25,0.01,0.5-0.06,0.73c-0.07,0.24-0.19,0.46-0.36,0.66
		c-0.17,0.21-0.38,0.39-0.64,0.55c-0.25,0.16-0.51,0.27-0.77,0.34c-0.26,0.07-0.51,0.08-0.75,0.05c-0.25-0.03-0.48-0.12-0.69-0.26
		c-0.21-0.14-0.4-0.34-0.57-0.6l-1.7-2.7c-0.16-0.25-0.25-0.5-0.28-0.75c-0.03-0.25-0.01-0.5,0.06-0.74
		c0.07-0.24,0.19-0.46,0.36-0.66c0.17-0.21,0.38-0.39,0.63-0.54c0.24-0.15,0.49-0.26,0.75-0.33c0.26-0.07,0.51-0.08,0.76-0.05
		c0.25,0.03,0.48,0.12,0.7,0.25c0.22,0.14,0.41,0.34,0.57,0.59L237.21,114.87z M234.74,112.68c-0.17-0.27-0.4-0.43-0.69-0.49
		c-0.29-0.06-0.58,0-0.88,0.19c-0.3,0.19-0.49,0.43-0.56,0.72c-0.07,0.29-0.02,0.57,0.14,0.83l1.67,2.66
		c0.18,0.28,0.4,0.45,0.68,0.51c0.28,0.06,0.58,0,0.89-0.2c0.31-0.19,0.5-0.43,0.57-0.72c0.07-0.28,0.02-0.56-0.16-0.84
		L234.74,112.68z"/>
	<path class="st0" d="M244.13,113.23l-0.6,0.3c-0.08,0.04-0.14,0.02-0.17-0.05l-1.31-2.58c-0.03-0.06-0.07-0.08-0.12-0.05
		l-2.09,1.06c-0.05,0.03-0.06,0.07-0.03,0.13l1.3,2.57c0.04,0.08,0.02,0.14-0.05,0.17l-0.6,0.3c-0.08,0.04-0.14,0.02-0.17-0.05
		l-2.96-5.84c-0.04-0.07-0.02-0.13,0.05-0.16l0.6-0.3c0.08-0.04,0.13-0.03,0.17,0.04l1.21,2.38c0.03,0.06,0.07,0.08,0.12,0.05
		l2.09-1.06c0.05-0.03,0.06-0.07,0.03-0.13l-1.2-2.38c-0.04-0.07-0.02-0.13,0.05-0.16l0.6-0.3c0.09-0.04,0.14-0.03,0.18,0.03
		l2.96,5.84C244.22,113.13,244.2,113.19,244.13,113.23z"/>
	<path class="st0" d="M247.59,113.09c0.03,0.1,0.04,0.16,0.02,0.19c-0.02,0.03-0.05,0.05-0.1,0.07l-0.47,0.19
		c-0.05,0.02-0.09,0.03-0.12,0.02c-0.03-0.01-0.06-0.04-0.09-0.1l-0.67-1.67c-0.04-0.1-0.05-0.17-0.04-0.21
		c0.02-0.04,0.05-0.08,0.1-0.14l0.15-0.15c0.17-0.15,0.25-0.37,0.26-0.66c0.01-0.28-0.04-0.62-0.15-1.01
		c-0.06-0.22-0.12-0.44-0.2-0.68c-0.07-0.23-0.16-0.51-0.26-0.82c-0.1-0.31-0.23-0.67-0.37-1.09c-0.15-0.42-0.32-0.91-0.52-1.49
		c-0.02-0.08-0.03-0.14,0-0.18c0.02-0.04,0.06-0.07,0.13-0.1l3.06-1.23c0.06-0.02,0.11-0.03,0.15-0.01
		c0.04,0.01,0.08,0.06,0.11,0.13l2.12,5.27c0.01,0.01,0.02,0.03,0.03,0.05c0.02,0.02,0.04,0.03,0.07,0.02l0.21-0.09
		c0.08-0.03,0.13-0.03,0.16-0.01c0.03,0.02,0.06,0.07,0.08,0.14l0.72,1.8c0.03,0.1,0.04,0.16,0.02,0.18
		c-0.02,0.02-0.05,0.04-0.1,0.06l-0.45,0.18c-0.05,0.02-0.1,0.03-0.13,0.02c-0.03-0.01-0.07-0.06-0.11-0.14l-0.46-1.15
		c-0.03-0.04-0.05-0.06-0.08-0.06c-0.03,0-0.06,0.01-0.1,0.03l-3.34,1.34c-0.06,0.02-0.09,0.05-0.1,0.07c0,0.02,0,0.06,0.01,0.12
		L247.59,113.09z M246.19,105.76c-0.04,0.01-0.05,0.04-0.05,0.07c0,0.03,0,0.05,0.01,0.07c0.08,0.24,0.18,0.51,0.28,0.81
		c0.1,0.3,0.21,0.6,0.32,0.9c0.11,0.3,0.21,0.6,0.3,0.88c0.09,0.28,0.17,0.54,0.23,0.75c0.02,0.1,0.05,0.22,0.08,0.34
		c0.03,0.13,0.05,0.26,0.07,0.4c0.02,0.14,0.03,0.28,0.04,0.41c0,0.14,0,0.26-0.02,0.38c-0.01,0.05,0.01,0.06,0.08,0.04l2.28-0.92
		c0.01-0.01,0.03-0.02,0.05-0.03c0.02-0.02,0.02-0.05,0-0.1l-1.85-4.6c-0.03-0.08-0.09-0.1-0.18-0.07L246.19,105.76z"/>
	<path class="st0" d="M259.3,101.47c0.05,0.03,0.08,0.07,0.08,0.1c0.01,0.03-0.01,0.08-0.05,0.14l-0.32,0.45
		c-0.02,0.04-0.06,0.05-0.1,0.06c-0.05,0-0.09-0.01-0.13-0.04c-0.17-0.13-0.37-0.22-0.6-0.26c-0.23-0.05-0.46-0.04-0.68,0.02
		c-0.34,0.09-0.58,0.25-0.71,0.49c-0.13,0.24-0.16,0.51-0.08,0.82l0.8,3.1c0.08,0.3,0.24,0.52,0.49,0.66
		c0.25,0.14,0.54,0.17,0.89,0.08c0.22-0.06,0.41-0.17,0.57-0.33c0.16-0.16,0.29-0.31,0.38-0.47c0.02-0.05,0.05-0.09,0.08-0.13
		c0.03-0.03,0.08-0.04,0.15-0.01l0.52,0.24c0.03,0.01,0.04,0.03,0.06,0.06c0.01,0.03,0.02,0.07,0.01,0.1
		c-0.14,0.33-0.35,0.61-0.62,0.83c-0.28,0.22-0.59,0.38-0.94,0.47c-0.28,0.07-0.56,0.1-0.82,0.09c-0.27-0.01-0.51-0.07-0.72-0.18
		c-0.22-0.11-0.41-0.26-0.57-0.46c-0.16-0.2-0.28-0.44-0.36-0.73l-0.81-3.11c-0.07-0.28-0.09-0.54-0.05-0.79
		c0.04-0.25,0.12-0.47,0.25-0.67c0.13-0.2,0.3-0.37,0.52-0.52c0.22-0.15,0.46-0.26,0.75-0.33c0.33-0.08,0.66-0.11,0.99-0.09
		C258.61,101.09,258.95,101.23,259.3,101.47z"/>
	<path class="st0" d="M266.69,104.38c0.05,0.3,0.04,0.57-0.02,0.81c-0.07,0.25-0.18,0.46-0.33,0.66c-0.16,0.19-0.35,0.35-0.59,0.48
		c-0.24,0.13-0.5,0.22-0.8,0.27c-0.3,0.05-0.58,0.06-0.84,0.02c-0.26-0.04-0.5-0.11-0.72-0.24c-0.22-0.12-0.4-0.29-0.54-0.5
		c-0.14-0.21-0.24-0.47-0.3-0.77l-0.55-3.14c-0.05-0.29-0.04-0.56,0.03-0.8c0.07-0.25,0.18-0.47,0.34-0.66
		c0.16-0.19,0.35-0.35,0.59-0.48c0.23-0.13,0.5-0.22,0.78-0.27c0.28-0.05,0.55-0.06,0.82-0.02c0.26,0.04,0.5,0.11,0.72,0.24
		c0.22,0.12,0.4,0.29,0.55,0.5c0.15,0.21,0.25,0.47,0.3,0.76L266.69,104.38z M265.23,101.42c-0.05-0.31-0.2-0.55-0.45-0.71
		c-0.25-0.17-0.54-0.22-0.89-0.16c-0.35,0.06-0.62,0.21-0.79,0.46c-0.17,0.24-0.23,0.52-0.18,0.82l0.54,3.1
		c0.06,0.32,0.2,0.57,0.44,0.73c0.23,0.16,0.54,0.21,0.9,0.15c0.36-0.06,0.63-0.21,0.8-0.45c0.17-0.23,0.23-0.51,0.17-0.84
		L265.23,101.42z"/>
	<path class="st0" d="M269.65,107.16c0,0.1-0.01,0.17-0.03,0.19c-0.02,0.02-0.06,0.03-0.11,0.04l-0.5,0.05c-0.06,0-0.1,0-0.12-0.02
		c-0.02-0.02-0.04-0.06-0.05-0.12l-0.16-1.8c-0.01-0.11,0-0.18,0.03-0.21c0.03-0.03,0.07-0.07,0.13-0.1l0.19-0.09
		c0.21-0.1,0.35-0.28,0.44-0.55c0.09-0.27,0.14-0.61,0.15-1.01c0.01-0.22,0.01-0.46,0.01-0.7c0-0.25-0.01-0.53-0.02-0.86
		c-0.01-0.33-0.02-0.71-0.04-1.15c-0.02-0.44-0.04-0.96-0.07-1.57c0-0.08,0.02-0.14,0.05-0.17c0.03-0.03,0.08-0.05,0.15-0.06
		l3.29-0.29c0.07-0.01,0.12,0,0.15,0.03c0.04,0.03,0.06,0.08,0.06,0.16l0.51,5.65c0,0.01,0.01,0.03,0.02,0.06
		c0.01,0.02,0.03,0.04,0.06,0.03l0.23-0.02c0.08-0.01,0.13,0,0.15,0.04c0.02,0.03,0.04,0.08,0.04,0.16l0.17,1.93
		c0,0.1-0.01,0.16-0.03,0.18c-0.03,0.02-0.06,0.03-0.11,0.03l-0.48,0.04c-0.06,0.01-0.1,0-0.13-0.02c-0.03-0.02-0.05-0.07-0.07-0.16
		l-0.11-1.24c-0.01-0.05-0.03-0.08-0.06-0.08c-0.03,0-0.06-0.01-0.1,0l-3.58,0.32c-0.07,0.01-0.1,0.02-0.11,0.04
		c-0.01,0.02-0.02,0.06-0.03,0.12L269.65,107.16z M270.43,99.73c-0.04,0-0.06,0.02-0.07,0.05c-0.01,0.03-0.01,0.05-0.01,0.07
		c0.01,0.26,0.02,0.54,0.03,0.86c0.01,0.32,0.03,0.63,0.04,0.96c0.01,0.32,0.02,0.63,0.03,0.93c0,0.3,0.01,0.56,0,0.79
		c-0.01,0.1-0.01,0.22-0.02,0.35c-0.01,0.13-0.03,0.26-0.05,0.4c-0.02,0.14-0.05,0.27-0.08,0.41c-0.04,0.13-0.08,0.25-0.13,0.36
		c-0.02,0.05,0,0.07,0.06,0.06l2.44-0.22c0.01,0,0.03-0.01,0.06-0.02c0.03-0.01,0.04-0.04,0.03-0.09l-0.44-4.94
		c-0.01-0.09-0.06-0.13-0.16-0.12L270.43,99.73z"/>
	<path class="st0" d="M280.29,105.31l-3.59,0.02c-0.09,0-0.13-0.04-0.13-0.12l-0.04-6.54c0-0.08,0.04-0.12,0.13-0.12l3.54-0.02
		c0.09,0,0.14,0.04,0.14,0.12l0,0.54c0,0.09-0.04,0.13-0.13,0.13l-2.67,0.02c-0.06,0-0.09,0.03-0.09,0.09l0.01,1.88
		c0,0.06,0.03,0.09,0.08,0.09l2.21-0.01c0.09,0,0.13,0.04,0.13,0.13l0,0.55c0,0.08-0.04,0.12-0.12,0.12l-2.21,0.01
		c-0.06,0-0.09,0.03-0.09,0.1l0.01,2.13c0,0.07,0.03,0.1,0.08,0.1l2.72-0.02c0.09,0,0.13,0.04,0.13,0.12l0,0.55
		C280.43,105.27,280.38,105.31,280.29,105.31z"/>
	<path class="st0" d="M283.13,98.72c0.01-0.07,0.05-0.11,0.14-0.1l0.62,0.05c0.08,0.01,0.12,0.05,0.11,0.13l-0.36,4.84
		c0,0.02,0,0.02,0.01,0.02c0.01,0,0.02-0.01,0.02-0.03l2.9-4.58c0.04-0.05,0.08-0.09,0.12-0.12c0.04-0.03,0.1-0.04,0.19-0.04
		l0.5,0.04c0.08,0.01,0.12,0.05,0.11,0.13l-0.48,6.53c-0.01,0.08-0.05,0.12-0.14,0.11l-0.63-0.05c-0.08-0.01-0.12-0.05-0.11-0.14
		l0.36-4.9c0-0.02-0.01-0.02-0.03,0c-0.46,0.75-0.94,1.53-1.45,2.34c-0.51,0.82-0.99,1.6-1.45,2.34c-0.04,0.08-0.08,0.12-0.11,0.14
		c-0.03,0.01-0.09,0.02-0.19,0.01l-0.5-0.04c-0.09-0.01-0.13-0.05-0.12-0.14L283.13,98.72z M284.17,97.2c0-0.04,0.01-0.07,0.03-0.09
		c0.02-0.02,0.05-0.03,0.11-0.02l0.23,0.02c0.06,0,0.09,0.02,0.11,0.04c0.01,0.02,0.02,0.06,0.04,0.11c0.05,0.22,0.13,0.38,0.23,0.5
		c0.11,0.12,0.26,0.18,0.47,0.2c0.39,0.03,0.66-0.17,0.8-0.59c0.02-0.05,0.03-0.09,0.05-0.11c0.01-0.02,0.05-0.03,0.12-0.02
		l0.23,0.02c0.06,0,0.09,0.02,0.11,0.04c0.01,0.02,0.02,0.05,0.01,0.09c-0.02,0.18-0.07,0.35-0.15,0.51
		c-0.08,0.16-0.17,0.3-0.29,0.41c-0.12,0.11-0.26,0.2-0.41,0.26c-0.16,0.06-0.33,0.08-0.52,0.07c-0.17-0.01-0.33-0.06-0.48-0.14
		c-0.14-0.08-0.27-0.19-0.37-0.31c-0.1-0.13-0.18-0.28-0.24-0.45C284.18,97.56,284.16,97.38,284.17,97.2z"/>
	<path class="st0" d="M294.27,100.61c0.03,0.05,0.04,0.09,0.04,0.12c0,0.03-0.04,0.07-0.11,0.11l-0.47,0.28
		c-0.03,0.02-0.07,0.03-0.12,0.01c-0.05-0.02-0.08-0.05-0.1-0.09c-0.1-0.19-0.25-0.35-0.45-0.48c-0.2-0.13-0.41-0.22-0.63-0.25
		c-0.35-0.05-0.63,0-0.84,0.17c-0.22,0.17-0.35,0.41-0.4,0.72l-0.49,3.16c-0.05,0.3,0.02,0.57,0.19,0.8
		c0.17,0.23,0.43,0.37,0.78,0.43c0.23,0.03,0.45,0.01,0.66-0.07c0.21-0.08,0.39-0.17,0.53-0.28c0.04-0.04,0.08-0.07,0.13-0.09
		c0.04-0.02,0.09,0,0.14,0.05l0.38,0.43c0.02,0.02,0.03,0.05,0.03,0.08c0,0.04-0.01,0.07-0.03,0.1c-0.26,0.25-0.56,0.42-0.9,0.52
		c-0.34,0.1-0.69,0.12-1.04,0.06c-0.29-0.04-0.55-0.13-0.79-0.24c-0.24-0.12-0.44-0.27-0.59-0.45c-0.16-0.18-0.27-0.4-0.34-0.64
		c-0.07-0.24-0.08-0.51-0.03-0.81l0.49-3.17c0.04-0.28,0.13-0.53,0.27-0.74c0.13-0.21,0.3-0.39,0.5-0.52
		c0.2-0.13,0.43-0.22,0.68-0.27c0.26-0.05,0.53-0.05,0.82-0.01c0.33,0.05,0.65,0.16,0.94,0.31
		C293.78,99.99,294.04,100.25,294.27,100.61z"/>
	<path class="st0" d="M300.31,102l-1.42-0.33c-0.06-0.01-0.1,0.01-0.12,0.06l-1.3,5.63c-0.02,0.09-0.07,0.12-0.15,0.1l-0.66-0.15
		c-0.08-0.02-0.12-0.07-0.1-0.15l1.3-5.63c0.01-0.06-0.01-0.1-0.06-0.12l-1.39-0.32c-0.08-0.02-0.12-0.07-0.1-0.15l0.12-0.54
		c0.02-0.08,0.07-0.11,0.16-0.09l3.89,0.9c0.08,0.02,0.12,0.07,0.1,0.14l-0.13,0.55C300.44,101.99,300.39,102.02,300.31,102z"/>
	<path class="st0" d="M305.61,107.73c-0.09,0.29-0.22,0.53-0.38,0.74c-0.16,0.21-0.35,0.37-0.57,0.49
		c-0.22,0.12-0.46,0.19-0.72,0.21c-0.26,0.02-0.53-0.01-0.82-0.1l-2.03-0.64c-0.08-0.03-0.11-0.08-0.09-0.16l1.96-6.24
		c0.02-0.08,0.07-0.1,0.15-0.08l1.88,0.59c0.57,0.18,0.97,0.46,1.21,0.85c0.24,0.39,0.28,0.86,0.1,1.42
		c-0.04,0.11-0.09,0.22-0.16,0.33c-0.07,0.11-0.16,0.21-0.26,0.3c-0.1,0.09-0.21,0.17-0.32,0.25c-0.12,0.07-0.23,0.13-0.35,0.17
		c-0.02,0.02-0.03,0.05-0.01,0.08c0.24,0.24,0.39,0.52,0.45,0.84C305.72,107.1,305.71,107.42,305.61,107.73z M304.73,107.48
		c0.05-0.15,0.07-0.3,0.08-0.45c0.01-0.16-0.02-0.3-0.07-0.44c-0.06-0.14-0.15-0.26-0.27-0.38c-0.13-0.12-0.29-0.21-0.5-0.27
		l-1.05-0.33c-0.06-0.02-0.09,0-0.11,0.06l-0.67,2.14c-0.02,0.06,0,0.1,0.05,0.12l1.16,0.37c0.32,0.1,0.61,0.08,0.86-0.08
		C304.45,108.06,304.62,107.82,304.73,107.48z M305.45,104.52c0.09-0.28,0.07-0.53-0.04-0.75c-0.12-0.22-0.33-0.38-0.66-0.48
		l-1.02-0.32c-0.06-0.02-0.09,0-0.11,0.06l-0.54,1.71c-0.02,0.06,0,0.1,0.05,0.12l1.03,0.32c0.33,0.1,0.6,0.08,0.83-0.06
		C305.22,104.99,305.37,104.78,305.45,104.52z"/>
	<path class="st0" d="M309.72,104.27c0.03-0.07,0.08-0.08,0.17-0.05l0.58,0.24c0.08,0.03,0.1,0.08,0.07,0.16l-1.84,4.49
		c0,0.01,0,0.02,0,0.02c0.01,0,0.02-0.01,0.03-0.02l4.18-3.46c0.05-0.03,0.1-0.06,0.15-0.08c0.05-0.02,0.11-0.01,0.19,0.02
		l0.47,0.19c0.07,0.03,0.1,0.08,0.07,0.16l-2.48,6.06c-0.03,0.07-0.09,0.09-0.17,0.06l-0.58-0.24c-0.07-0.03-0.09-0.09-0.06-0.17
		l1.86-4.55c0.01-0.02,0-0.02-0.03-0.01c-0.67,0.57-1.37,1.16-2.11,1.78c-0.74,0.62-1.44,1.21-2.11,1.78
		c-0.06,0.06-0.12,0.09-0.15,0.09c-0.03,0-0.09-0.01-0.18-0.05l-0.46-0.19c-0.08-0.03-0.11-0.09-0.07-0.17L309.72,104.27z"/>
	<path class="st0" d="M315.7,108.83c0.13-0.25,0.29-0.47,0.49-0.63c0.19-0.17,0.41-0.29,0.65-0.36c0.24-0.07,0.49-0.09,0.75-0.06
		c0.26,0.03,0.53,0.12,0.81,0.26l1.72,0.88c0.08,0.04,0.1,0.1,0.06,0.17l-2.99,5.82c-0.04,0.07-0.09,0.09-0.17,0.05l-0.59-0.3
		c-0.08-0.04-0.1-0.1-0.06-0.18l1.17-2.28c0.03-0.06,0.02-0.1-0.03-0.13l-0.98-0.5c-0.05-0.03-0.09-0.04-0.11-0.03
		c-0.03,0.01-0.05,0.02-0.08,0.05l-2.18,1.69c-0.06,0.04-0.11,0.07-0.15,0.08c-0.04,0.01-0.12-0.01-0.23-0.07l-0.47-0.24
		c-0.04-0.02-0.08-0.05-0.12-0.09c-0.04-0.04-0.01-0.09,0.07-0.16l2.36-1.81c0.02-0.01,0.02-0.03,0.01-0.07
		c-0.13-0.3-0.2-0.63-0.2-1C315.42,109.57,315.51,109.2,315.7,108.83z M318.14,108.8c-0.19-0.1-0.37-0.15-0.54-0.16
		c-0.17-0.01-0.33,0.02-0.47,0.07c-0.14,0.06-0.27,0.14-0.38,0.25c-0.11,0.11-0.2,0.23-0.26,0.35c-0.04,0.08-0.08,0.17-0.11,0.27
		c-0.03,0.1-0.05,0.21-0.06,0.32c-0.01,0.11-0.01,0.23,0.01,0.35c0.02,0.12,0.06,0.23,0.12,0.34c0.01,0.02,0.03,0.05,0.05,0.07
		c0.02,0.02,0.05,0.04,0.08,0.06l1.29,0.66c0.05,0.03,0.09,0.01,0.12-0.05l1.02-1.99c0.03-0.05,0.01-0.09-0.05-0.12L318.14,108.8z"
		/>
	<path class="st0" d="M329.01,115.34c0,0.06,0,0.1-0.02,0.13c-0.02,0.03-0.07,0.05-0.14,0.06l-0.54,0.06
		c-0.04,0.01-0.08-0.01-0.11-0.04c-0.03-0.04-0.05-0.08-0.05-0.12c-0.01-0.21-0.08-0.42-0.2-0.63c-0.12-0.21-0.27-0.37-0.46-0.5
		c-0.29-0.2-0.57-0.27-0.84-0.21c-0.27,0.06-0.49,0.22-0.66,0.48l-1.8,2.65c-0.17,0.25-0.23,0.52-0.17,0.81
		c0.06,0.28,0.23,0.52,0.52,0.72c0.19,0.13,0.4,0.2,0.62,0.22c0.23,0.02,0.43,0.01,0.6-0.02c0.06-0.02,0.1-0.02,0.15-0.02
		c0.04,0,0.08,0.03,0.1,0.1l0.16,0.55c0.01,0.02,0.01,0.05-0.01,0.09c-0.02,0.03-0.04,0.06-0.07,0.07
		c-0.34,0.11-0.69,0.14-1.04,0.08c-0.35-0.06-0.67-0.19-0.97-0.39c-0.24-0.16-0.45-0.35-0.61-0.56c-0.16-0.21-0.28-0.43-0.34-0.66
		c-0.06-0.23-0.07-0.48-0.03-0.73c0.04-0.25,0.15-0.5,0.32-0.75l1.81-2.65c0.16-0.24,0.35-0.42,0.56-0.56
		c0.21-0.13,0.44-0.22,0.67-0.25c0.24-0.03,0.48-0.02,0.73,0.05c0.25,0.07,0.5,0.18,0.74,0.35c0.28,0.19,0.52,0.42,0.72,0.69
		C328.84,114.57,328.96,114.91,329.01,115.34z"/>
	<path class="st0" d="M330.2,123.93l-2.8-2.23c-0.07-0.06-0.08-0.11-0.03-0.18l4.08-5.12c0.05-0.06,0.11-0.07,0.18-0.01l2.77,2.21
		c0.07,0.06,0.09,0.12,0.04,0.18l-0.34,0.42c-0.06,0.07-0.12,0.08-0.19,0.02l-2.09-1.67c-0.05-0.04-0.09-0.03-0.12,0.01l-1.17,1.47
		c-0.04,0.05-0.04,0.08,0,0.12l1.73,1.38c0.07,0.05,0.08,0.12,0.02,0.19l-0.34,0.43c-0.05,0.06-0.11,0.07-0.17,0.02l-1.73-1.38
		c-0.05-0.04-0.09-0.03-0.13,0.02l-1.33,1.67c-0.04,0.05-0.04,0.09,0,0.13l2.12,1.69c0.07,0.05,0.08,0.11,0.03,0.18l-0.34,0.43
		C330.33,123.98,330.27,123.98,330.2,123.93z"/>
	<path class="st0" d="M336.02,129.28l-0.46-0.44c-0.06-0.06-0.06-0.11-0.01-0.17l2.94-3.09c0.01-0.01,0.01-0.02,0.01-0.03
		c0-0.01-0.02-0.01-0.03-0.01l-1.22,0.61l-2.66,1.25c-0.03,0.01-0.06,0.01-0.11,0.02c-0.05,0.01-0.1-0.01-0.14-0.05l-0.31-0.3
		c-0.04-0.04-0.07-0.08-0.08-0.11c-0.01-0.04,0-0.08,0.02-0.14l1.11-2.62l0.58-1.3c0-0.03-0.01-0.04-0.02-0.02l-2.92,3.07
		c-0.06,0.06-0.12,0.07-0.18,0.01l-0.45-0.43c-0.07-0.06-0.07-0.12-0.01-0.18l4.45-4.68c0.1-0.1,0.19-0.11,0.29-0.01l0.31,0.3
		c0.08,0.07,0.12,0.12,0.12,0.15c0,0.03-0.01,0.08-0.03,0.16l-1.65,3.87l-0.53,1.16c-0.01,0.07,0.01,0.09,0.06,0.08
		c0.19-0.09,0.38-0.19,0.58-0.3c0.2-0.11,0.39-0.21,0.58-0.3l3.76-1.84c0.07-0.02,0.12-0.02,0.16-0.02
		c0.04,0.01,0.09,0.04,0.14,0.09l0.32,0.31c0.06,0.06,0.08,0.11,0.08,0.15c-0.01,0.04-0.03,0.09-0.07,0.13l-4.45,4.68
		C336.14,129.34,336.08,129.34,336.02,129.28z"/>
	<path class="st0" d="M340.2,133.93l-2.37-2.69c-0.06-0.07-0.06-0.13,0-0.18l4.91-4.32c0.06-0.05,0.12-0.05,0.18,0.02l2.34,2.66
		c0.06,0.07,0.06,0.13,0,0.19l-0.41,0.36c-0.07,0.06-0.13,0.05-0.19-0.01l-1.77-2.01c-0.04-0.04-0.08-0.05-0.13-0.01l-1.41,1.24
		c-0.04,0.04-0.05,0.08-0.02,0.12l1.46,1.66c0.06,0.07,0.05,0.13-0.01,0.19l-0.41,0.36c-0.06,0.05-0.12,0.05-0.17-0.01l-1.46-1.66
		c-0.04-0.04-0.08-0.04-0.13,0l-1.6,1.41c-0.05,0.04-0.06,0.08-0.02,0.12l1.79,2.04c0.06,0.07,0.06,0.13,0,0.18l-0.41,0.36
		C340.32,134,340.26,134,340.2,133.93z"/>
	<path class="st0" d="M347.04,131.75c0.06-0.04,0.12-0.03,0.17,0.04l0.37,0.5c0.05,0.07,0.04,0.12-0.02,0.17l-3.89,2.9
		c-0.01,0.01-0.01,0.01-0.01,0.02c0.01,0,0.02,0,0.04,0l5.36-0.82c0.06,0,0.12,0,0.17,0.01c0.05,0.01,0.1,0.05,0.15,0.12l0.3,0.41
		c0.05,0.06,0.04,0.12-0.03,0.17l-5.24,3.91c-0.06,0.05-0.12,0.04-0.18-0.03l-0.38-0.5c-0.05-0.06-0.04-0.12,0.03-0.18l3.94-2.94
		c0.02-0.01,0.01-0.02-0.02-0.03c-0.86,0.14-1.77,0.29-2.72,0.44c-0.95,0.15-1.86,0.29-2.72,0.44c-0.09,0.02-0.15,0.02-0.17,0
		c-0.03-0.02-0.07-0.06-0.13-0.14l-0.3-0.4c-0.05-0.07-0.04-0.13,0.03-0.19L347.04,131.75z M348.87,131.54
		c0.03-0.02,0.06-0.03,0.08-0.04c0.03,0,0.06,0.02,0.09,0.07l0.14,0.18c0.03,0.05,0.05,0.08,0.04,0.11
		c-0.01,0.03-0.03,0.06-0.06,0.1c-0.13,0.18-0.21,0.35-0.23,0.5c-0.02,0.16,0.03,0.32,0.16,0.49c0.24,0.32,0.56,0.39,0.97,0.22
		c0.05-0.02,0.09-0.03,0.11-0.03c0.02,0,0.06,0.02,0.1,0.07l0.14,0.18c0.04,0.05,0.05,0.08,0.04,0.11
		c-0.01,0.02-0.03,0.05-0.06,0.07c-0.15,0.1-0.31,0.18-0.48,0.22c-0.17,0.05-0.34,0.06-0.5,0.05c-0.16-0.02-0.32-0.06-0.46-0.15
		c-0.15-0.08-0.28-0.2-0.39-0.35c-0.1-0.14-0.17-0.29-0.21-0.45c-0.03-0.16-0.04-0.32-0.01-0.49c0.03-0.16,0.09-0.32,0.18-0.47
		C348.61,131.79,348.73,131.66,348.87,131.54z"/>
	<path class="st0" d="M347.97,144.98l-0.35-0.57c-0.05-0.08-0.04-0.13,0.03-0.18l2.47-1.51c0.06-0.03,0.07-0.08,0.04-0.13l-1.22-2
		c-0.03-0.05-0.07-0.06-0.13-0.02l-2.46,1.5c-0.07,0.05-0.13,0.03-0.17-0.03l-0.35-0.57c-0.05-0.07-0.04-0.13,0.03-0.18l5.59-3.41
		c0.07-0.04,0.12-0.03,0.17,0.04l0.35,0.57c0.05,0.08,0.04,0.13-0.02,0.17l-2.28,1.39c-0.06,0.03-0.07,0.08-0.04,0.13l1.22,2
		c0.03,0.05,0.07,0.06,0.13,0.02l2.27-1.39c0.07-0.04,0.12-0.03,0.17,0.04l0.35,0.57c0.05,0.08,0.04,0.14-0.02,0.18l-5.59,3.41
		C348.07,145.07,348.01,145.06,347.97,144.98z"/>
	<path class="st0" d="M352.93,150.49c-0.27,0.13-0.53,0.21-0.79,0.22c-0.25,0.01-0.5-0.03-0.72-0.13c-0.23-0.09-0.44-0.24-0.63-0.42
		c-0.19-0.19-0.35-0.42-0.49-0.68c-0.14-0.27-0.22-0.53-0.27-0.8c-0.04-0.26-0.04-0.51,0.02-0.75c0.06-0.24,0.16-0.46,0.33-0.66
		c0.16-0.2,0.38-0.37,0.65-0.51l2.85-1.43c0.26-0.13,0.52-0.2,0.78-0.21c0.26-0.01,0.5,0.04,0.73,0.13c0.23,0.1,0.44,0.24,0.63,0.42
		c0.19,0.19,0.35,0.41,0.48,0.68c0.13,0.26,0.21,0.51,0.25,0.78c0.04,0.26,0.04,0.52-0.02,0.76c-0.05,0.24-0.16,0.47-0.32,0.67
		c-0.16,0.2-0.38,0.37-0.64,0.51L352.93,150.49z M355.34,148.24c0.28-0.14,0.47-0.35,0.55-0.64c0.09-0.28,0.05-0.58-0.11-0.9
		c-0.16-0.32-0.38-0.53-0.67-0.63c-0.28-0.1-0.56-0.07-0.83,0.06l-2.81,1.41c-0.29,0.15-0.49,0.36-0.58,0.63
		c-0.09,0.27-0.05,0.57,0.12,0.91c0.16,0.33,0.38,0.54,0.66,0.64c0.27,0.1,0.56,0.07,0.85-0.08L355.34,148.24z"/>
	<path class="st0" d="M354.39,158.78l-0.23-0.59c-0.03-0.08-0.01-0.13,0.07-0.16l3.97-1.55c0.01-0.01,0.02-0.01,0.02-0.03
		c0-0.01-0.01-0.02-0.03-0.02l-1.37,0.04l-2.94,0.01c-0.03-0.01-0.06-0.01-0.11-0.03c-0.05-0.01-0.08-0.05-0.11-0.11l-0.16-0.4
		c-0.02-0.05-0.03-0.1-0.02-0.14c0-0.04,0.03-0.08,0.08-0.12l2.11-1.91l1.08-0.93c0.01-0.03,0.01-0.04-0.01-0.03l-3.94,1.54
		c-0.08,0.03-0.14,0.01-0.17-0.07l-0.23-0.58c-0.03-0.08-0.01-0.14,0.06-0.17l6.01-2.35c0.13-0.05,0.22-0.01,0.27,0.11l0.16,0.4
		c0.04,0.1,0.05,0.16,0.04,0.19c-0.01,0.03-0.04,0.07-0.1,0.13l-3.13,2.8l-0.97,0.83c-0.04,0.06-0.03,0.09,0.02,0.1
		c0.21,0,0.43-0.01,0.66-0.03c0.23-0.01,0.45-0.02,0.66-0.03l4.19-0.07c0.07,0.01,0.12,0.03,0.15,0.05
		c0.03,0.02,0.06,0.07,0.09,0.14l0.16,0.41c0.03,0.08,0.03,0.13,0.01,0.17c-0.03,0.04-0.06,0.07-0.12,0.09l-6.01,2.35
		C354.48,158.87,354.42,158.85,354.39,158.78z"/>
	<path class="st0" d="M361.75,159.48c0.03,0.12,0.02,0.2-0.05,0.26l-3.41,2.35c-0.02,0.03-0.02,0.05,0.02,0.07l4.1,0.1
		c0.1,0,0.17,0.07,0.21,0.2l0.16,0.53c0.02,0.08,0.02,0.13-0.01,0.15c-0.03,0.02-0.07,0.03-0.13,0.02l-5.29-0.22
		c-0.28-0.01-0.53-0.02-0.76-0.04c-0.23-0.02-0.44-0.06-0.61-0.12c-0.18-0.06-0.33-0.16-0.45-0.29c-0.12-0.13-0.22-0.31-0.29-0.55
		l-0.14-0.47c-0.02-0.08-0.02-0.13,0-0.15c0.02-0.03,0.07-0.05,0.15-0.07l0.42-0.12c0.08-0.02,0.13-0.03,0.15-0.02
		c0.02,0.01,0.04,0.05,0.06,0.1l0.08,0.27c0.04,0.14,0.09,0.25,0.15,0.33c0.06,0.08,0.17,0.14,0.33,0.17
		c0.16,0.04,0.28,0.05,0.38,0.04c0.1-0.01,0.21-0.05,0.32-0.13l4.23-3.05c0.1-0.08,0.18-0.07,0.21,0.05L361.75,159.48z"/>
	<path class="st0" d="M364.23,169.57c0.02,0.12-0.01,0.21-0.08,0.25l-3.66,1.92c-0.03,0.03-0.02,0.05,0.01,0.08l4.05,0.59
		c0.1,0.01,0.16,0.09,0.18,0.23l0.09,0.54c0.01,0.08,0,0.13-0.03,0.14c-0.03,0.02-0.07,0.02-0.13,0l-5.22-0.86
		c-0.28-0.04-0.53-0.09-0.75-0.13c-0.23-0.04-0.42-0.11-0.59-0.19c-0.17-0.08-0.31-0.2-0.41-0.34c-0.1-0.14-0.18-0.34-0.22-0.58
		l-0.08-0.49c-0.01-0.08-0.01-0.13,0.01-0.15c0.02-0.02,0.07-0.04,0.15-0.05l0.43-0.07c0.08-0.01,0.13-0.01,0.15,0
		c0.02,0.02,0.04,0.05,0.05,0.11l0.05,0.28c0.02,0.14,0.06,0.26,0.11,0.34c0.05,0.08,0.15,0.16,0.3,0.21
		c0.15,0.06,0.28,0.09,0.38,0.09c0.1,0,0.21-0.03,0.34-0.09l4.57-2.52c0.11-0.07,0.18-0.04,0.2,0.08L364.23,169.57z"/>
	<path class="st0" d="M364.74,179.49c-0.04,0.04-0.08,0.06-0.11,0.07c-0.03,0-0.08-0.02-0.13-0.08l-0.39-0.38
		c-0.03-0.03-0.04-0.06-0.04-0.11c0.01-0.05,0.03-0.09,0.06-0.12c0.15-0.15,0.27-0.33,0.36-0.55c0.08-0.22,0.11-0.44,0.09-0.67
		c-0.03-0.35-0.16-0.61-0.37-0.78c-0.21-0.17-0.48-0.24-0.79-0.21l-3.19,0.29c-0.31,0.03-0.55,0.15-0.73,0.38
		c-0.18,0.22-0.26,0.51-0.22,0.86c0.02,0.23,0.1,0.43,0.23,0.62c0.13,0.19,0.26,0.34,0.4,0.45c0.05,0.03,0.08,0.07,0.11,0.1
		c0.03,0.03,0.02,0.08-0.01,0.15l-0.32,0.47c-0.01,0.02-0.04,0.04-0.07,0.05c-0.04,0.01-0.07,0-0.1-0.01
		c-0.3-0.19-0.54-0.44-0.72-0.75c-0.18-0.31-0.28-0.64-0.31-1c-0.03-0.29-0.01-0.57,0.05-0.83c0.06-0.26,0.16-0.49,0.29-0.68
		c0.14-0.2,0.32-0.36,0.54-0.49c0.22-0.13,0.48-0.2,0.78-0.23l3.2-0.29c0.28-0.03,0.55,0,0.79,0.08c0.24,0.08,0.45,0.2,0.62,0.36
		c0.18,0.16,0.32,0.36,0.43,0.6c0.11,0.24,0.18,0.5,0.21,0.79c0.03,0.34,0,0.67-0.08,0.99
		C365.22,178.86,365.03,179.18,364.74,179.49z"/>
	<path class="st0" d="M364.86,185.68l-0.03-1.45c0-0.07-0.03-0.1-0.09-0.1l-5.77,0.1c-0.09,0-0.13-0.04-0.13-0.12l-0.01-0.67
		c0-0.09,0.04-0.13,0.12-0.13l5.77-0.1c0.07,0,0.1-0.03,0.1-0.09l-0.03-1.43c0-0.09,0.04-0.13,0.12-0.13l0.55-0.01
		c0.08,0,0.12,0.04,0.12,0.13l0.07,3.99c0,0.09-0.03,0.13-0.11,0.13l-0.56,0.01C364.9,185.81,364.86,185.77,364.86,185.68z"/>
	<path class="st0" d="M363.35,192.36c-0.27-0.02-0.53-0.08-0.76-0.2c-0.24-0.12-0.44-0.27-0.61-0.46c-0.17-0.19-0.3-0.42-0.39-0.67
		c-0.09-0.26-0.12-0.53-0.11-0.82l0.06-1.01c0-0.06-0.03-0.09-0.09-0.09l-2.56-0.15c-0.09-0.01-0.13-0.05-0.13-0.14l0.04-0.66
		c0-0.09,0.05-0.13,0.13-0.13l6.53,0.37c0.08,0,0.12,0.05,0.11,0.14l-0.11,1.88c-0.02,0.32-0.09,0.61-0.2,0.85
		c-0.12,0.25-0.27,0.45-0.46,0.62c-0.19,0.17-0.41,0.29-0.66,0.37C363.9,192.35,363.63,192.38,363.35,192.36z M364.74,189.38
		c0-0.07-0.02-0.1-0.08-0.1l-2.23-0.13c-0.07,0-0.1,0.02-0.1,0.08l-0.06,1.01c-0.02,0.34,0.07,0.63,0.28,0.85
		c0.2,0.22,0.49,0.34,0.87,0.36c0.14,0.01,0.28-0.01,0.43-0.05c0.15-0.04,0.28-0.1,0.4-0.19c0.12-0.09,0.22-0.2,0.3-0.34
		c0.08-0.14,0.13-0.3,0.14-0.49L364.74,189.38z"/>
	<path class="st0" d="M359.62,198.49c-0.3-0.04-0.55-0.13-0.77-0.27c-0.21-0.14-0.39-0.31-0.52-0.52c-0.13-0.21-0.23-0.44-0.28-0.7
		c-0.05-0.26-0.05-0.54-0.01-0.84c0.04-0.3,0.12-0.57,0.23-0.81c0.11-0.24,0.26-0.44,0.44-0.61c0.18-0.17,0.4-0.29,0.64-0.36
		c0.25-0.07,0.52-0.09,0.83-0.05l3.16,0.43c0.29,0.04,0.54,0.13,0.76,0.27c0.21,0.14,0.39,0.31,0.52,0.52
		c0.13,0.21,0.23,0.44,0.28,0.7c0.05,0.26,0.05,0.54,0.01,0.83c-0.04,0.28-0.11,0.54-0.23,0.78c-0.11,0.24-0.26,0.45-0.45,0.62
		c-0.18,0.17-0.4,0.3-0.65,0.37c-0.25,0.08-0.52,0.1-0.82,0.05L359.62,198.49z M362.88,198c0.31,0.04,0.58-0.03,0.82-0.21
		c0.23-0.18,0.37-0.45,0.42-0.8c0.05-0.36-0.02-0.65-0.2-0.89c-0.18-0.24-0.42-0.38-0.73-0.42l-3.12-0.42
		c-0.33-0.04-0.6,0.02-0.83,0.19c-0.23,0.17-0.37,0.44-0.42,0.82c-0.05,0.36,0.01,0.66,0.18,0.9c0.17,0.23,0.42,0.37,0.75,0.42
		L362.88,198z"/>
	<path class="st0" d="M363.89,202.19c0.07,0.02,0.1,0.07,0.08,0.15l-0.14,0.61c-0.02,0.08-0.07,0.11-0.14,0.09l-4.73-1.06
		c-0.01,0-0.02,0-0.02,0.01c0,0.01,0.01,0.02,0.02,0.03l4.11,3.54c0.04,0.05,0.08,0.09,0.1,0.13c0.02,0.04,0.03,0.11,0.01,0.19
		l-0.11,0.49c-0.02,0.08-0.07,0.11-0.14,0.09l-6.39-1.43c-0.08-0.02-0.11-0.07-0.09-0.16l0.14-0.61c0.02-0.08,0.07-0.11,0.16-0.09
		l4.8,1.07c0.02,0,0.02-0.01,0.01-0.03c-0.67-0.56-1.37-1.15-2.11-1.78c-0.73-0.62-1.43-1.22-2.1-1.78
		c-0.07-0.05-0.11-0.1-0.12-0.13c-0.01-0.03,0-0.1,0.02-0.19l0.11-0.49c0.02-0.09,0.07-0.12,0.16-0.1L363.89,202.19z M365.25,203.44
		c0.04,0.01,0.06,0.02,0.08,0.04c0.02,0.02,0.02,0.06,0.01,0.11l-0.05,0.22c-0.01,0.06-0.03,0.09-0.06,0.1
		c-0.02,0.01-0.06,0.02-0.12,0.02c-0.22,0.02-0.4,0.07-0.53,0.16c-0.13,0.09-0.22,0.23-0.27,0.44c-0.09,0.38,0.07,0.68,0.47,0.88
		c0.05,0.03,0.08,0.05,0.1,0.06c0.02,0.02,0.02,0.06,0.01,0.12l-0.05,0.22c-0.01,0.06-0.03,0.09-0.06,0.1
		c-0.02,0.01-0.05,0.01-0.09,0c-0.18-0.05-0.34-0.12-0.49-0.22c-0.15-0.1-0.27-0.22-0.36-0.35c-0.09-0.13-0.16-0.28-0.19-0.45
		c-0.03-0.16-0.03-0.34,0.01-0.52c0.04-0.17,0.11-0.32,0.21-0.45c0.1-0.13,0.22-0.24,0.37-0.32c0.14-0.08,0.3-0.14,0.48-0.17
		C364.89,203.4,365.06,203.4,365.25,203.44z"/>
	<path class="st0" d="M360.39,212.93c-0.05,0.02-0.09,0.03-0.13,0.02c-0.03-0.01-0.06-0.05-0.09-0.12l-0.21-0.5
		c-0.02-0.04-0.02-0.08,0.01-0.12c0.02-0.04,0.06-0.07,0.1-0.09c0.2-0.08,0.38-0.2,0.54-0.37c0.16-0.17,0.28-0.37,0.34-0.58
		c0.1-0.34,0.09-0.62-0.04-0.86c-0.13-0.24-0.35-0.4-0.65-0.5l-3.06-0.95c-0.29-0.09-0.57-0.07-0.82,0.07
		c-0.25,0.14-0.43,0.37-0.54,0.71c-0.07,0.22-0.08,0.44-0.03,0.66c0.05,0.22,0.12,0.41,0.2,0.57c0.03,0.05,0.05,0.09,0.07,0.14
		c0.01,0.04-0.01,0.09-0.07,0.13l-0.48,0.31c-0.02,0.02-0.05,0.02-0.08,0.01c-0.04-0.01-0.07-0.02-0.09-0.05
		c-0.21-0.29-0.33-0.62-0.38-0.97c-0.04-0.35-0.01-0.7,0.09-1.04c0.09-0.28,0.21-0.53,0.36-0.75c0.15-0.22,0.33-0.39,0.54-0.52
		c0.21-0.13,0.43-0.21,0.69-0.24c0.25-0.03,0.52,0,0.81,0.08l3.07,0.95c0.27,0.08,0.51,0.21,0.7,0.37c0.19,0.16,0.34,0.35,0.44,0.57
		c0.1,0.22,0.16,0.45,0.17,0.72c0.01,0.26-0.03,0.53-0.11,0.81c-0.1,0.32-0.25,0.62-0.45,0.89
		C361.07,212.54,360.78,212.76,360.39,212.93z"/>
	<path class="st0" d="M358.13,218.67l0.53-1.35c0.02-0.06,0.01-0.1-0.04-0.12l-5.37-2.12c-0.08-0.03-0.11-0.09-0.08-0.16l0.25-0.62
		c0.03-0.08,0.09-0.11,0.16-0.08l5.37,2.12c0.06,0.02,0.1,0.01,0.12-0.05l0.53-1.33c0.03-0.08,0.09-0.11,0.16-0.08l0.51,0.2
		c0.08,0.03,0.1,0.09,0.06,0.17l-1.46,3.71c-0.03,0.08-0.08,0.11-0.15,0.08l-0.52-0.21C358.12,218.81,358.1,218.76,358.13,218.67z"
		/>
	<path class="st0" d="M351.67,223.12c-0.27-0.13-0.5-0.29-0.68-0.48c-0.18-0.19-0.31-0.4-0.4-0.64c-0.09-0.23-0.12-0.48-0.1-0.74
		c0.02-0.26,0.09-0.53,0.22-0.8l0.93-1.91c0.04-0.08,0.09-0.1,0.17-0.07l5.88,2.86c0.07,0.04,0.09,0.09,0.06,0.16l-0.86,1.77
		c-0.26,0.53-0.6,0.89-1.02,1.07c-0.42,0.18-0.89,0.15-1.42-0.11c-0.11-0.05-0.21-0.12-0.3-0.21c-0.1-0.09-0.18-0.19-0.26-0.3
		c-0.08-0.11-0.14-0.23-0.2-0.35c-0.05-0.12-0.09-0.25-0.11-0.37c-0.02-0.03-0.04-0.03-0.07-0.02c-0.27,0.2-0.57,0.31-0.9,0.32
		C352.27,223.33,351.96,223.26,351.67,223.12z M352.04,222.28c0.14,0.07,0.28,0.12,0.44,0.15c0.15,0.03,0.3,0.03,0.45-0.01
		c0.14-0.04,0.28-0.11,0.42-0.21c0.13-0.11,0.25-0.26,0.34-0.46l0.48-0.99c0.03-0.05,0.01-0.09-0.04-0.12l-2.02-0.98
		c-0.06-0.03-0.1-0.02-0.13,0.04l-0.54,1.1c-0.15,0.3-0.16,0.59-0.05,0.86C351.51,221.92,351.72,222.13,352.04,222.28z
		 M354.86,223.44c0.26,0.13,0.51,0.15,0.74,0.07c0.23-0.08,0.42-0.28,0.57-0.58l0.47-0.96c0.03-0.05,0.01-0.09-0.04-0.12l-1.61-0.79
		c-0.06-0.03-0.1-0.02-0.13,0.04l-0.47,0.97c-0.15,0.31-0.17,0.58-0.07,0.82C354.43,223.14,354.61,223.32,354.86,223.44z"/>
	<path class="st0" d="M354.51,227.85c-0.06,0.11-0.14,0.15-0.22,0.14l-4.04-0.87c-0.04,0-0.05,0.03-0.04,0.07l2.74,3.05
		c0.07,0.07,0.07,0.17,0,0.29l-0.28,0.47c-0.04,0.07-0.08,0.1-0.11,0.09c-0.03-0.01-0.07-0.03-0.1-0.08l-3.47-4
		c-0.18-0.21-0.35-0.4-0.49-0.58c-0.15-0.18-0.26-0.36-0.33-0.53c-0.08-0.17-0.11-0.35-0.1-0.52c0.01-0.18,0.08-0.37,0.2-0.59
		l0.25-0.43c0.04-0.07,0.08-0.11,0.11-0.11c0.03,0,0.08,0.02,0.15,0.06l0.38,0.22c0.07,0.04,0.11,0.07,0.11,0.1
		c0.01,0.02,0,0.06-0.03,0.11l-0.14,0.25c-0.08,0.13-0.12,0.24-0.13,0.34c-0.02,0.1,0.02,0.22,0.1,0.36
		c0.08,0.14,0.16,0.24,0.23,0.31c0.08,0.07,0.18,0.11,0.32,0.14l5.12,0.99c0.13,0.02,0.17,0.08,0.11,0.19L354.51,227.85z"/>
</g>
<g>
	<path class="st1" d="M328.08,143.81c-5.62-3.1-12.05-4.87-18.93-4.87c-12.14,0-22.99,5.52-30.17,14.21
		c-7.22-8.69-18.07-14.21-30.24-14.21c-6.84,0-13.27,1.77-18.91,4.87c-12.1,6.7-20.28,19.56-20.28,34.37c0,4.23,0.7,8.28,1.94,12.07
		c6.72,30.26,67.49,68.4,67.49,68.4s60.69-38.13,67.44-68.4c1.25-3.79,1.94-7.85,1.94-12.07
		C348.36,163.37,340.17,150.52,328.08,143.81z"/>
	<rect x="272.3" y="179.83" class="st2" width="13.65" height="17.39"/>
	<g>
		<path class="st3" d="M256.32,156.41c0,5.23-4.24,9.47-9.47,9.47c-5.23,0-9.47-4.24-9.47-9.47c0-5.23,4.24-9.47,9.47-9.47
			C252.09,146.94,256.32,151.18,256.32,156.41z"/>
		<rect x="237.97" y="163.84" class="st3" width="17.78" height="26.4"/>
		<path class="st3" d="M237.97,182.55v26.4h0c0,2.13,1.73,3.86,3.86,3.86c2.13,0,3.86-1.73,3.86-3.86h0v-26.4H237.97z"/>
		<path class="st3" d="M237.97,163.84l-10.98,17.97l0,0c-0.89,1.45-0.43,3.35,1.02,4.23c1.45,0.89,3.35,0.43,4.24-1.02h0
			l10.98-17.97L237.97,163.84z"/>
		<path class="st3" d="M255.74,163.84l10.98,17.97v0c0.89,1.45,0.43,3.35-1.02,4.23c-1.45,0.89-3.35,0.43-4.23-1.02h0l-10.98-17.97
			L255.74,163.84z"/>
		<path class="st3" d="M248.02,182.55v26.4l0,0c0,2.13,1.73,3.86,3.86,3.86c2.13,0,3.86-1.73,3.86-3.86h0v-26.4H248.02z"/>
	</g>
	<g>
		<path class="st3" d="M320.9,159.7c0,5.23-4.24,9.47-9.47,9.47c-5.23,0-9.47-4.24-9.47-9.47c0-5.23,4.24-9.47,9.47-9.47
			C316.66,150.23,320.9,154.47,320.9,159.7z"/>
		<polygon class="st3" points="315.64,167.4 311.5,167.4 311.43,167.4 307.29,167.4 297.63,197.7 311.43,197.7 311.5,197.7 
			325.31,197.7 		"/>
		<path class="st3" d="M316.93,167.12l13.72,15.99h0c1.11,1.29,0.96,3.24-0.33,4.34c-1.29,1.11-3.24,0.96-4.34-0.33v0l-13.72-15.98
			L316.93,167.12z"/>
		<path class="st3" d="M307.12,165.88l-13.72,15.99v0c-1.11,1.29-0.96,3.24,0.33,4.34c1.29,1.11,3.24,0.96,4.35-0.33l0,0
			l13.72-15.98L307.12,165.88z"/>
		<path class="st3" d="M302.54,182.55v26.4h0c0,2.13,1.73,3.86,3.86,3.86c2.13,0,3.86-1.73,3.86-3.86h0v-26.4H302.54z"/>
		<path class="st3" d="M312.59,182.55v26.4l0,0c0,2.13,1.73,3.86,3.86,3.86c2.13,0,3.86-1.73,3.86-3.86l0,0v-26.4H312.59z"/>
	</g>
	<g>
		<g>
			<path class="st2" d="M286.84,174.07c0,4.26-3.45,7.71-7.71,7.71c-4.26,0-7.71-3.45-7.71-7.71s3.45-7.71,7.71-7.71
				C283.38,166.36,286.84,169.81,286.84,174.07z"/>
			<path class="st2" d="M279.49,178.09l-18.85,4.55v0c-1.52,0.37-2.46,1.9-2.09,3.42c0.37,1.52,1.9,2.46,3.42,2.09v0l18.85-4.55
				L279.49,178.09z"/>
			<path class="st2" d="M278.14,177.93l18.85,4.55v0c1.52,0.37,2.46,1.9,2.09,3.42c-0.37,1.52-1.9,2.46-3.42,2.09v0l-18.85-4.55
				L278.14,177.93z"/>
			<path class="st2" d="M272.3,189.59v20.26l0,0c0,1.64,1.33,2.96,2.96,2.96c1.64,0,2.97-1.33,2.97-2.96l0,0v-20.26H272.3z"/>
			<path class="st2" d="M280.01,189.59v20.26l0,0c0,1.64,1.33,2.96,2.96,2.96c1.63,0,2.96-1.33,2.96-2.96h0v-20.26H280.01z"/>
		</g>
		<path class="st1" d="M281.75,183.68c-0.32-0.18-0.69-0.28-1.08-0.28c-0.69,0-1.31,0.31-1.72,0.81c-0.41-0.5-1.03-0.81-1.72-0.81
			c-0.39,0-0.76,0.1-1.08,0.28c-0.69,0.38-1.15,1.12-1.15,1.96c0,0.24,0.04,0.47,0.11,0.69c0.38,1.72,3.84,3.9,3.84,3.9
			s3.46-2.17,3.84-3.9c0.07-0.22,0.11-0.45,0.11-0.69C282.91,184.8,282.44,184.07,281.75,183.68z"/>
	</g>
	<g>
		<path class="st2" d="M264.76,219.09c0-0.15,0.08-0.22,0.25-0.22h1.13c0.18,0,0.28,0.07,0.28,0.2v8.58c0,0.15-0.09,0.23-0.26,0.23
			h-1.13c-0.17,0-0.26-0.07-0.26-0.22v-3.43c0-0.16-0.08-0.25-0.25-0.25h-2.38c-0.11,0-0.17,0.02-0.21,0.07
			c-0.03,0.04-0.04,0.1-0.04,0.18v3.42c0,0.15-0.09,0.23-0.26,0.23h-1.13c-0.19,0-0.28-0.07-0.28-0.22v-8.58
			c0-0.15,0.09-0.22,0.28-0.22h1.13c0.08,0,0.14,0.01,0.19,0.04c0.05,0.03,0.07,0.08,0.07,0.16v3.2c0,0.11,0.01,0.18,0.04,0.21
			c0.03,0.04,0.08,0.05,0.17,0.05h2.44c0.09,0,0.15-0.02,0.18-0.05c0.03-0.03,0.05-0.1,0.05-0.21V219.09z"/>
		<path class="st2" d="M274.14,227.58c0.02,0.05,0.02,0.11,0.01,0.19c-0.02,0.08-0.09,0.12-0.23,0.12h-1.18
			c-0.16,0-0.25-0.06-0.29-0.19l-0.34-1.46c-0.02-0.08-0.04-0.13-0.06-0.16c-0.02-0.03-0.07-0.04-0.12-0.04h-2.16
			c-0.08,0-0.13,0.02-0.15,0.06c-0.02,0.04-0.04,0.08-0.06,0.13c-0.02,0.08-0.05,0.18-0.07,0.31c-0.03,0.13-0.06,0.28-0.1,0.43
			c-0.04,0.15-0.07,0.29-0.09,0.43c-0.03,0.14-0.06,0.24-0.07,0.31c-0.02,0.07-0.06,0.12-0.11,0.15c-0.05,0.03-0.11,0.05-0.17,0.05
			h-1.12c-0.14,0-0.22-0.03-0.24-0.09c-0.02-0.06-0.03-0.13-0.01-0.21l2.13-8.52c0.05-0.14,0.15-0.2,0.31-0.2h1.66
			c0.07,0,0.13,0,0.18,0.02c0.05,0.02,0.08,0.07,0.1,0.17L274.14,227.58z M271.22,222.48l-0.35-1.68c-0.01-0.04-0.03-0.06-0.05-0.07
			c-0.02-0.01-0.04,0.01-0.05,0.07l-0.34,1.65l-0.45,2.09c-0.01,0.05-0.01,0.08,0,0.1c0.01,0.02,0.04,0.03,0.1,0.03h1.52
			c0.1,0,0.13-0.05,0.09-0.15L271.22,222.48z"/>
		<path class="st2" d="M275.28,219.12c0-0.17,0.09-0.25,0.28-0.25h1.08c0.18,0,0.26,0.08,0.26,0.25v5.48c0,0.03,0.01,0.04,0.02,0.03
			c0.02,0,0.03-0.02,0.04-0.03c0.51-0.91,1-1.82,1.48-2.73c0.49-0.91,0.98-1.81,1.47-2.71c0.06-0.1,0.12-0.17,0.19-0.22
			c0.07-0.05,0.17-0.07,0.29-0.07h0.81c0.17,0,0.26,0.08,0.26,0.25v8.52c0,0.17-0.09,0.25-0.26,0.25h-1.07
			c-0.17,0-0.26-0.08-0.26-0.25v-5.48c0-0.03,0-0.04-0.02-0.04h-0.02l-0.02,0.03c-0.5,0.92-1,1.83-1.49,2.75
			c-0.5,0.92-1,1.83-1.49,2.75c-0.07,0.11-0.13,0.18-0.19,0.21c-0.06,0.02-0.15,0.04-0.27,0.04h-0.82c-0.19,0-0.28-0.08-0.28-0.25
			V219.12z M276.58,216.79c0-0.08,0.01-0.13,0.04-0.16c0.02-0.03,0.09-0.05,0.2-0.05h0.58c0.1,0,0.16,0.01,0.18,0.04
			c0.02,0.02,0.04,0.08,0.04,0.15c0.01,0.25,0.08,0.46,0.22,0.61c0.14,0.16,0.33,0.23,0.59,0.23c0.26,0,0.46-0.08,0.6-0.24
			c0.14-0.16,0.22-0.37,0.26-0.62c0.01-0.08,0.03-0.13,0.05-0.15c0.02-0.03,0.09-0.04,0.18-0.04h0.53c0.09,0,0.16,0.01,0.18,0.03
			c0.03,0.02,0.04,0.08,0.04,0.19c-0.02,0.25-0.07,0.49-0.15,0.72c-0.08,0.23-0.19,0.43-0.34,0.6c-0.15,0.17-0.34,0.31-0.56,0.41
			c-0.22,0.1-0.49,0.16-0.8,0.16c-0.29,0-0.55-0.05-0.77-0.16c-0.22-0.1-0.4-0.24-0.56-0.42c-0.16-0.18-0.28-0.37-0.36-0.6
			C276.64,217.29,276.59,217.05,276.58,216.79z"/>
		<path class="st2" d="M284.02,229.62c-0.02,0.14-0.06,0.22-0.1,0.25c-0.05,0.03-0.11,0.05-0.19,0.05h-0.91
			c-0.09,0-0.17-0.02-0.21-0.05c-0.04-0.03-0.07-0.1-0.08-0.2v-2.66c0-0.16,0.02-0.27,0.07-0.34c0.04-0.07,0.12-0.12,0.24-0.17
			c0.02,0,0.06-0.01,0.13-0.03c0.07-0.03,0.11-0.04,0.13-0.04c0.18-0.06,0.32-0.16,0.44-0.3c0.12-0.15,0.21-0.33,0.29-0.56
			c0.08-0.23,0.14-0.49,0.18-0.78c0.04-0.29,0.08-0.61,0.12-0.97c0.02-0.15,0.04-0.39,0.08-0.74c0.03-0.34,0.06-0.74,0.09-1.17
			c0.03-0.44,0.05-0.9,0.08-1.37c0.03-0.48,0.05-0.92,0.06-1.33c0.02-0.14,0.06-0.23,0.11-0.26c0.06-0.04,0.14-0.06,0.25-0.06h4.62
			c0.11,0,0.18,0.02,0.22,0.06c0.05,0.04,0.07,0.13,0.07,0.26v7.09c0,0.02,0.01,0.05,0.02,0.08c0.01,0.03,0.05,0.06,0.1,0.07h0.37
			c0.12,0.01,0.19,0.04,0.21,0.1c0.02,0.06,0.03,0.14,0.03,0.23v2.86c-0.01,0.14-0.04,0.22-0.09,0.25c-0.05,0.03-0.12,0.05-0.2,0.05
			h-0.92c-0.11,0-0.18-0.02-0.22-0.06c-0.05-0.04-0.08-0.12-0.1-0.23v-1.58c0-0.08-0.03-0.12-0.08-0.14
			c-0.05-0.01-0.11-0.02-0.15-0.02h-4.38c-0.11,0-0.17,0.01-0.2,0.04c-0.03,0.02-0.05,0.09-0.07,0.18V229.62z M286.04,220.33
			c-0.05,0-0.08,0.02-0.1,0.06c-0.02,0.04-0.03,0.07-0.03,0.1c-0.01,0.18-0.03,0.42-0.05,0.73c-0.02,0.31-0.04,0.62-0.06,0.96
			c-0.02,0.33-0.04,0.64-0.07,0.94c-0.02,0.3-0.04,0.52-0.05,0.68c-0.02,0.17-0.04,0.37-0.06,0.6c-0.02,0.22-0.05,0.45-0.09,0.68
			c-0.04,0.23-0.09,0.45-0.15,0.67c-0.06,0.22-0.14,0.41-0.24,0.58c-0.02,0.04-0.02,0.06,0.01,0.07c0.03,0.01,0.05,0.02,0.08,0.02
			h2.67c0.02,0,0.05-0.01,0.09-0.02c0.04-0.01,0.06-0.05,0.06-0.12v-5.77c0-0.12-0.07-0.18-0.22-0.18H286.04z"/>
		<path class="st2" d="M291.85,219.12c0-0.17,0.09-0.25,0.28-0.25h1.08c0.18,0,0.26,0.08,0.26,0.25v5.48c0,0.03,0.01,0.04,0.02,0.03
			c0.02,0,0.03-0.02,0.04-0.03c0.51-0.91,1-1.82,1.49-2.73c0.49-0.91,0.98-1.81,1.48-2.71c0.06-0.1,0.12-0.17,0.19-0.22
			c0.07-0.05,0.16-0.07,0.29-0.07h0.81c0.17,0,0.26,0.08,0.26,0.25v8.52c0,0.17-0.08,0.25-0.26,0.25h-1.07
			c-0.17,0-0.26-0.08-0.26-0.25v-5.48c0-0.03-0.01-0.04-0.01-0.04h-0.02l-0.01,0.03c-0.5,0.92-1,1.83-1.5,2.75
			c-0.5,0.92-1,1.83-1.5,2.75c-0.07,0.11-0.13,0.18-0.19,0.21c-0.06,0.02-0.15,0.04-0.28,0.04h-0.82c-0.18,0-0.28-0.08-0.28-0.25
			V219.12z"/>
		<path class="st2" d="M262.22,240.15c-0.43,0-0.82-0.06-1.17-0.18c-0.35-0.12-0.65-0.29-0.91-0.52c-0.26-0.23-0.45-0.5-0.59-0.82
			c-0.14-0.32-0.21-0.69-0.21-1.08v-4.05c0-0.39,0.07-0.74,0.21-1.07c0.14-0.32,0.33-0.59,0.59-0.82c0.26-0.22,0.55-0.4,0.9-0.53
			c0.35-0.13,0.72-0.19,1.13-0.19c0.51,0,0.99,0.09,1.45,0.27c0.47,0.18,0.88,0.53,1.25,1.06c0.05,0.06,0.07,0.12,0.06,0.19
			c-0.01,0.07-0.05,0.13-0.14,0.19l-0.79,0.6c-0.08,0.05-0.15,0.06-0.23,0.03c-0.07-0.03-0.13-0.08-0.17-0.14
			c-0.33-0.49-0.79-0.73-1.39-0.73c-0.41,0-0.72,0.12-0.93,0.36c-0.21,0.24-0.31,0.52-0.31,0.84v3.99c0,0.31,0.11,0.58,0.32,0.8
			c0.21,0.22,0.53,0.33,0.94,0.33c0.27,0,0.53-0.07,0.76-0.2c0.23-0.13,0.43-0.29,0.6-0.49c0.05-0.05,0.1-0.1,0.15-0.16
			c0.05-0.05,0.13-0.05,0.23,0.01l0.88,0.54c0.07,0.04,0.11,0.09,0.14,0.16c0.03,0.06,0.02,0.13-0.02,0.19
			c-0.34,0.52-0.75,0.88-1.22,1.09C263.29,240.04,262.78,240.15,262.22,240.15z"/>
		<path class="st2" d="M271.49,238.59c0.16,0,0.23,0.08,0.23,0.25v0.96c0,0.17-0.08,0.26-0.23,0.26h-4.95
			c-0.18,0-0.27-0.08-0.27-0.25v-8.52c0-0.17,0.09-0.25,0.27-0.25h4.87c0.07,0,0.12,0.02,0.17,0.05c0.05,0.04,0.07,0.09,0.07,0.18
			v0.95c0,0.17-0.08,0.26-0.23,0.26h-3.26c-0.1,0-0.16,0.02-0.19,0.04c-0.03,0.03-0.04,0.08-0.04,0.14v1.75
			c0,0.17,0.08,0.25,0.23,0.25h2.69c0.16,0,0.24,0.09,0.24,0.26v0.94c0,0.17-0.08,0.25-0.24,0.25h-2.7c-0.09,0-0.15,0.02-0.18,0.05
			c-0.03,0.03-0.04,0.09-0.04,0.17v2.02c0,0.09,0.02,0.15,0.06,0.18c0.04,0.03,0.11,0.04,0.21,0.04H271.49z"/>
		<path class="st2" d="M280.76,240.06h-1.08c-0.17,0-0.25-0.07-0.25-0.22v-4.66c0-0.05-0.02-0.05-0.08,0l-0.6,1.59l-1.07,2.76
			c-0.04,0.08-0.08,0.14-0.13,0.19c-0.05,0.05-0.12,0.07-0.22,0.07h-0.67c-0.1,0-0.18-0.01-0.23-0.03
			c-0.06-0.02-0.11-0.08-0.16-0.19l-1.04-2.73l-0.58-1.63c-0.01-0.01-0.02-0.02-0.04-0.02c-0.02-0.01-0.02,0-0.02,0.02v4.63
			c0,0.15-0.09,0.22-0.26,0.22h-1.07c-0.18,0-0.26-0.08-0.26-0.25v-8.48c0-0.19,0.1-0.29,0.31-0.29h0.91c0.12,0,0.21,0.01,0.27,0.03
			c0.06,0.02,0.12,0.09,0.18,0.22c0.03,0.08,0.09,0.22,0.17,0.43c0.08,0.21,0.18,0.45,0.28,0.73c0.11,0.28,0.22,0.57,0.34,0.88
			c0.12,0.31,0.23,0.61,0.34,0.88c0.1,0.28,0.19,0.52,0.28,0.74c0.08,0.21,0.14,0.35,0.17,0.43l0.71,1.91c0.04,0.1,0.08,0.1,0.13,0
			c0.02-0.07,0.06-0.19,0.13-0.38c0.07-0.19,0.14-0.38,0.22-0.59c0.08-0.21,0.15-0.4,0.22-0.58c0.07-0.19,0.11-0.31,0.15-0.38
			l1.58-4.07c0.08-0.17,0.23-0.25,0.46-0.25h0.87c0.2,0,0.31,0.1,0.31,0.29v8.48C281.03,239.98,280.94,240.06,280.76,240.06z"/>
		<path class="st2" d="M288.92,237.3c0,0.4-0.07,0.77-0.21,1.1c-0.13,0.34-0.33,0.63-0.58,0.87c-0.25,0.24-0.55,0.44-0.9,0.58
			c-0.36,0.14-0.75,0.21-1.18,0.21h-3.03c-0.18,0-0.28-0.09-0.28-0.26v-8.55c0-0.14,0.09-0.21,0.28-0.21h1.09
			c0.19,0,0.28,0.07,0.28,0.21v3.14c0,0.12,0.06,0.17,0.17,0.17h1.54c0.45,0,0.85,0.07,1.2,0.21c0.35,0.14,0.64,0.33,0.88,0.58
			c0.24,0.24,0.42,0.53,0.54,0.87C288.86,236.56,288.92,236.92,288.92,237.3z M287.27,237.33c0-0.39-0.11-0.7-0.33-0.94
			c-0.22-0.24-0.51-0.36-0.88-0.36h-1.45c-0.07,0-0.12,0.01-0.15,0.04c-0.04,0.03-0.05,0.09-0.05,0.18v2.13
			c0,0.07,0.01,0.12,0.04,0.16c0.03,0.04,0.09,0.06,0.18,0.06h1.43c0.37,0,0.66-0.13,0.88-0.39
			C287.16,237.96,287.27,237.66,287.27,237.33z"/>
		<path class="st2" d="M298.9,237.56c0,0.42-0.07,0.79-0.22,1.11c-0.15,0.32-0.35,0.59-0.6,0.81c-0.25,0.22-0.55,0.39-0.9,0.5
			c-0.35,0.11-0.72,0.17-1.12,0.17c-0.4,0-0.77-0.06-1.13-0.17c-0.35-0.11-0.65-0.27-0.91-0.49c-0.25-0.21-0.45-0.48-0.6-0.81
			c-0.15-0.32-0.22-0.7-0.22-1.12v-1.18c0-0.06-0.01-0.11-0.03-0.15c-0.02-0.04-0.07-0.06-0.15-0.06h-0.91
			c-0.09,0-0.15,0.02-0.17,0.05c-0.02,0.03-0.03,0.09-0.03,0.17v3.45c0,0.16-0.08,0.23-0.25,0.23h-1.14c-0.18,0-0.26-0.07-0.26-0.22
			v-8.58c0-0.15,0.09-0.22,0.26-0.22h1.13c0.17,0,0.26,0.07,0.26,0.22v3.19c0,0.1,0.02,0.17,0.04,0.21
			c0.03,0.04,0.07,0.05,0.13,0.05H293c0.08-0.01,0.14-0.02,0.17-0.04c0.02-0.02,0.04-0.07,0.05-0.15v-1.02
			c0-0.41,0.07-0.77,0.22-1.09c0.14-0.32,0.34-0.59,0.6-0.82c0.25-0.22,0.55-0.4,0.9-0.51c0.34-0.12,0.72-0.18,1.12-0.18
			c0.39,0,0.76,0.06,1.11,0.18c0.35,0.12,0.65,0.28,0.91,0.5c0.25,0.22,0.45,0.49,0.6,0.81c0.15,0.32,0.23,0.69,0.23,1.11V237.56z
			 M297.25,233.52c0-0.34-0.11-0.62-0.32-0.83c-0.21-0.21-0.5-0.31-0.86-0.31c-0.38,0-0.68,0.11-0.89,0.32
			c-0.21,0.21-0.32,0.49-0.32,0.82v4.03c0,0.34,0.11,0.62,0.32,0.82c0.21,0.2,0.51,0.31,0.88,0.31c0.37,0,0.66-0.1,0.88-0.31
			c0.22-0.2,0.32-0.48,0.32-0.82V233.52z"/>
	</g>
</g>
</svg>
